<?xml version="1.0" encoding="utf-8"?>
<!-- Generator: Adobe Illustrator 27.2.0, SVG Export Plug-In . SVG Version: 6.00 Build 0)  -->
<svg version="1.0" id="Layer_1" xmlns="http://www.w3.org/2000/svg" xmlns:xlink="http://www.w3.org/1999/xlink" x="0px" y="0px"
	 viewBox="0 0 2500 3250" style="enable-background:new 0 0 2500 3250;" xml:space="preserve">
<style type="text/css">
	.st0{fill:#DDF9CA;stroke:#266011;stroke-miterlimit:10;}
</style>
<path class="st0" d="M743.2,916.3l21.2,9.4L801,907l20-16l45,5l36-5c0,0,20-15,24-25s10-18,26-23s42-5,50-5s16,4,35,0s45-19,45-19
	s16,9,31,14s59-14,68-14s53.3-19,68.6-30s27.4-13,29.4-23s11.9-18.4,14.4-20.9s17-9.4,17.2-12.8c0.2-3.4,1.3-18,6.1-24.9
	c4.8-6.9,51.1-25.3,61.3-32s7.7-9.4,14-13.8s24.7-12.1,28.7-15.7s9-11.7,13.2-14c4.2-2.3,46.9-19.7,50.6-19.9
	c3.6-0.2,6.5,0.6,11.1,0s12.4-6.9,16.5-6.3c4,0.6,8.2,0.4,10.7,3.4c2.5,3.1,1,5.7,0.8,7.5c-0.2,1.7,1.9,3.6,1.9,4.8
	s-1.9,3.6-4.8,5.6s-52.7,63-57.4,66.6s-8.4,8.6-11.1,14.4c-2.7,5.7-7.7,16.5-11.9,20.9c-4.2,4.4-24.1,29.1-29.3,33.3
	c-5.2,4.2-20.5,14.9-25.5,20.7c-5,5.7-11.3,20.1-11.7,23.6c-0.4,3.4-9.4,25.9-10,34.5c-0.6,8.6-0.6,9.6-0.8,16.9s-5.4,11.1-2.5,15.5
	c2.9,4.4,11.1,4.2,15.1,10.3s12.3,24.3,13.2,31.4s6.9,18.4,5.6,29.9s-8.2,66.8-9.4,71.6s-2.1,23.2-3.3,29.7s-25.5,40.2-30.3,45.4
	c-4.8,5.2-10.1,10.3-10.9,14.9c-0.8,4.6-7.7,10.9-10.5,14.9c-2.9,4-11.9,22.8-15.3,33.3c-3.4,10.5-7.5,37.9-8,40.8s-4,29.7-6.9,33.9
	c-2.9,4.2-8,17.6-10.3,19.7s-26,15.7-29.1,18.8c-3.1,3.1-19.1,14.9-29.7,22.6c-10.5,7.7-27.6,20.5-35.6,24.1c-8,3.6-19.9,4.8-26,9.4
	c-6.1,4.6-8.8,9.2-12.1,10.3c-3.3,1.1-7.7-10.7-9.6-11.3c-1.9-0.6-6.9,2.5-9.2,1.3s0.6-6.1-9.2-18.4s-39.3-34.9-49.4-41.4
	c-10.1-6.5-13.8-14.2-18.2-17c-4.4-2.9-19-21.4-33.3-21.6c-14.4-0.2-17.4,0.4-31.6,8s-26.8,8.8-37.7,13.4
	c-10.9,4.6-28.5,12.8-39.8,12.8c-11.3,0-25.3,5.2-32.7,6.9s-10-2.9-18.8-0.4c-8.8,2.5-11.9,6.1-19.5,9c-7.7,2.9-6.9,4-13.8,0.2
	s-14.6-8.8-15.1-13s3.1-7.7,2.7-9.4s-8-9.4-8.8-11.9c-0.8-2.5-1.2-1.4,2.1-9.2c2.3-5.5,2.3-12,2.3-14.9c0-3,0.9-4.1,1.3-8.5
	c0.1-1.4-6.9-7.6-5.1-11.8c0.3-0.7-4.4-5.5-6.2-5.3c-1.7,0.2-6.5,1.9-7.7,1.7c-1.1-0.2-10.1-4.4-12.4-1.9c-2.3,2.5-7.9,6.9-9.8,7.7
	c-1.9,0.8-5.6,5.5-8.2,4.8c-2.7-0.6-5.7-2.7-8-2.5c-2.3,0.2-4.8,3.4-6.1,4.6s-1.5,3.6-1.7,5.9c-0.2,2.3,1.7,6.9,1.7,6.9
	s-5.7-1.3-6.3-1.3s-2.7,4.8-3.4,8.2c-0.8,3.4-1,7.5-4,9.8c-3.1,2.3-6.9,1.9-6.9,1.9l-0.6,4.8c0,0-1.5,0.4-1.9,2.9
	c-0.4,2.5,4.2,5,2.7,7.7c-1.5,2.7-4,3.4-6.7,3.6c-2.7,0.2-3.4,1.3-4,3.6s-1.7,3.3-3.4,4c-1.7,0.8-5.7,2.3-7.4,2.7
	c-1.7,0.4-7.9,0.2-9,0.8c-1.1,0.6-6.5,4.2-6.5,4.2v2.7c0,0-8.6,3.1-10.3,3.6s-7.5,1.3-9.8,2.5c-2.3,1.1-6.3,2.7-6.9,4.4
	s-0.6,3.3-1.1,4.2s-5,3.3-5,3.3l2.5,1.3c0,0-0.2,2.5-2.5,5.6c-2.3,3.1-7.1,6.1-8.8,7.7c-1.7,1.5-5.4-0.6-6.9,0.2
	c-1.5,0.8-2.7,3.4-1.5,4.8s2.7,2.9,1.3,4c-1.3,1.1-1,2.7-5,4.8s-8.2,3.6-9.8,3.1c-1.5-0.6-4.8-0.6-7.3,0.2c-2.5,0.8-5.2,4-5.2,6.3
	s3.8,5,4.2,6.3c0.4,1.3-1.3,3.3-0.2,4.2c1.1,1,4.6,6.1,4.6,6.1s-4,5.4-4,5.9s1,8,1,8l-7.1,3.8l-1.5,2.9l-5.2,9c0,0-3.6,6.1-9,5.9
	c-5.4-0.2-7.7-2.7-9.4-3.4c-1.7-0.8-1.7-3.4-4-3.4c-2.3,0-11.3-1-11.9-1.3s-3.8-3.6-5.9-5.6c-2.1-1.9-2.5-7.3-6.1-8.8
	c-3.6-1.5-11.3-4.4-14.9-4c-3.6,0.4-5.6,1.5-7.1,3.8c-1.5,2.3-1.9,6.5-2.3,7.3c-0.4,0.8-1.9,1.1-5,1.7c-3.1,0.6-8.2-0.6-10.5,0.4
	c-2.3,1-3.4,3.1-7.5,1.9c-4-1.1-8.2-4.2-10.1-5.4s-3.8-2.1-4-3.8s-1-2.1,5.4-4.2c6.3-2.1,9.8-3.6,12.1-5.7s2.7-4.2,1.5-7.9
	c-1.1-3.6,0.8-6.1-4.6-6.3s-8.2,3.8-12.8,1c-4.6-2.9-0.6-7.3-11.7-8.2s0.8-8.8,0-9.4c-0.8-0.6,6.5,3.6,13.6,2.9
	c7.1-0.8,0.8-9.8,0.8-9.8s6.7-1,7.3-1.1s0-3.8,0.6-4c0.6-0.2,3.8-1.7,7.7-1.7c3.8,0,4.8-2.7,5.6-2.9c0.8-0.2,5.4-2.1,4.4-5.9
	c-1-3.8,0.4-9.2-0.4-10.3c-0.8-1.1-4.4-4.2-8.2-5.6c-3.8-1.3-3.3-2.7-5.6-4.6c-2.3-1.9-2.1,0.2-5.2-0.6c-3.1-0.8-7.5-2.1-8-2.9
	c-0.6-0.8-1.1-2.3,0.6-4c1.7-1.7,6.9-6.5,6.9-6.5s2.9-4.6,2.9-7.5s1.5-7.5,1.7-8s2.5-2.3,9.4-4.2c6.9-1.9,8.2,0,12.3-2.7
	s-3.3-1.1-3.1-5.6c0.2-4.4,5.6-8.2,6.5-9.2c1-1-5.4,7.3-9.2,6.1s-4.2-0.4-4.6-4.6c-0.4-4.2-5.4-9-5.7-9.8c-0.4-0.8,3.1-5.9,3.1-5.9
	l-6.3,3.3c0,0-11.5-4.4-13.8-4.4c-2.3,0-13.6-3.4-15.5-3.3c-1.9,0.2-5.7,4.6-5.7,4.6l-3.6,0.2c0,0-1.3,4.4-5,5.6
	c-3.6,1.1-6.9,0.4-8.6,0.6c-1.7,0.2-2.1,4.8-5.2,3.8c-3.1-1-3.1-4.2-3.3-5.2c-0.2-1-3.8-3.8-5.6-4.4c-1.7-0.6-3.4-3.8-3.4-5.4
	s5.6-4.2,6.7-6.3c1.1-2.1,2.9-7.5,2.9-7.5s4.4-4.2,4.4-5.2c0-1-0.8-6.3-0.8-6.3s-2.1,4.4-6.7,4.6c-4.6,0.2-4.8-3.6-6.5-3.8
	c-1.7-0.2-5.2-0.6-5.2-1.7s3.6-4.4,4.2-5.4c0.6-1,3.1-6.7,3.1-6.7s5.2-0.4,6.3-1.1c1.1-0.8,6.7-9.8,6.7-9.8s-1.1-5-1.1-6.5
	c0-1.5,4.4-5.6,5.9-7.9s4.2-9.6,4.4-10.3c0.2-0.8,3.1-2.5,3.6-3.6s-0.8-4.4-0.8-4.4s1.3-2.3,3.3-7.1c1.9-4.8,4.6-4.8,4.6-4.8
	s-4.8,3.4-8.4,4.8c-3.6,1.3-4.4,0.6-7.7,1.7s-4.2,3.4-6.1,5.7s-5.6,2.7-8.8,2.5c-3.3-0.2-3.4-1.3-6.3,0.4s-6.5-2.1-9.2-1.9
	s-6.5-2.1-6.9-3.3s2.9-7.7,1.1-10s-6.5-6.3-7.9-5.9c-1.3,0.4-5.4-2.9-5.9-3.3c-0.6-0.4-1.7-2.5-1.7-5c0-2.5,0-2.5,5.9-5.9
	c5.9-3.4,10.7-12.1,10.7-12.6s5.7-7.5,6.1-1c0.4,6.5,0.4-8,0.4-8s-8.4-3.4-5.4-8.6c3.1-5.2,6.1-6.5,7.9-4.6c1.7,1.9,7.9,4.8,7.9,4.8
	s6.1,1.7,8,3.1s10.5-1,11.1-1s-2.5-2.1-5.4-5.7c-2.9-3.6-6.7-4.8-10.5-5.4c-3.8-0.6-3.6,7.1-5-2.7c-1.3-9.8-5.4-18-6.3-19.3
	c-1-1.3-4.4-9.4-4.4-9.4s2.9-5,5.9-5c3.1,0,6.1,1.3,9.4-1.1c3.3-2.5,5.7-3.8,4.8-5.4c-1-1.5-7.7-1.7-8.4-2.9c-0.8-1.1-5.6-3.1-5.7-5
	c-0.2-1.9,0.6-3.1,0.6-4.2c0-1.1-4.4-2.1-3.6-2.7s6.7-6.1,8.4-7.5c1.7-1.3,5.6,0,7.3-2.3c1.7-2.3,8.4-10.9,9.2-10.9s3.3,0,5.9-3.4
	s5.2-4,5.2-6.9c0-2.9,0-5.2,0-5.2s2.1-1.3,2.1-3.1s0-6.3-0.4-8.6c-0.4-2.3-1.5-6.1,2.3-8.4c3.8-2.3,10.5-5.6,13.8-6.3
	c3.3-0.8,11.7-4.6,11.5-5.2s10-8.2,14.2-8.8c4.2-0.6,14,2.9,16.3,5.6c2.3,2.7,3.6,6.3,5,5c1.3-1.3,5-7.7,7.1-7.7s7.1-1.7,11.5,0.8
	c4.4,2.5,8.2,6.1,9.6,6.9c1.3,0.8,8.8-1.3,11.1-1.1c2.3,0.2,10.3,0.4,10.3,0.4s-14.6-2.3-17.4-4.8s-3.1-7.1-3.1-7.1s-2.3-3.3-8-8.2
	c-5.7-5-4.6-6.9-4.6-9c0-2.1,3.4-2.5,3.1-5.7c-0.4-3.3-0.2-5.7-0.2-5.7s3.8,0.2,6.9-1.5c3.1-1.7,3.6-6.7,7.7-7.7c4-1,2.5,1.3,9,1.9
	c6.5,0.6,9.6-1,9.6-1s-1-4-0.6-5.6c0.4-1.5,1.3-5,4.2-3.3c2.9,1.7,7.1,5,8.2,5s4.8-0.6,5.6,0.8c0.8,1.3,3.8,6.1,6.5,7.5
	c2.7,1.3,6.9-0.2,6.9-0.2s-0.2,3.6,3.4,2.3c3.6-1.3,7.1-3.3,9.4-3.1s3.6-3.6,5.6-3.6c1.9,0,6.1,2.1,9.8,2.7s5.9,2.3,5.9,2.9
	s-2.3,7.5-1.1,8.6s15.3,0.2,15.9,0.2s5.6-1.1,8.6,4.8c3.1,5.9,11.3,2.7,13.2,4.1c1.9,1.3,6,4.1,8.7,6.4
	C709.4,913.7,743.2,916.3,743.2,916.3z"/>
</svg>
